<?xml version="1.0" encoding="UTF-8"?>
<svg id="_レイヤー_2" data-name="レイヤー 2" xmlns="http://www.w3.org/2000/svg" viewBox="0 0 285.2 223.61">
  <defs>
    <style>
      .cls-1 {
        fill: #fff;
      }
    </style>
  </defs>
  <g id="_レイヤー_1-2" data-name="レイヤー 1">
    <path class="cls-1" d="M256.42,207.25L285.2,0h-1.52l-19.5,10.24-97.44,133.11c3.04-10.12,4.68-21.07,4.68-32.75C171.42,43.94,119,3.03,46.28,3.03H0v220.58h43.25c30.81,0,59.23-8.32,81.44-23.54-13.34,15.56-23.52,19.85-31.89,21.42l-.3,2.12h60.6l.61-2.12c-25.45-1.21-28.18-10.3-16.06-26.97l41.81-57.57h69.39l-10,70.3c-1.51,11.21-6.06,13.03-29.09,14.24l-.3,2.12h68.17l.3-2.12c-19.09-1.21-23.03-3.03-21.51-14.24ZM6.59,206.65V7.88h37.27c66.66,0,116.05,41.51,116.05,108.17s-54.24,102.72-114.23,102.72c-37.57,0-39.09-2.42-39.09-12.12ZM183.4,131.5l82.11-113.02-16.06,113.02h-66.05Z"/>
  </g>
</svg>