<?xml version="1.0" encoding="UTF-8"?>
<svg id="_レイヤー_2" data-name="レイヤー 2" xmlns="http://www.w3.org/2000/svg" viewBox="0 0 511.05 378.97">
  <defs>
    <style>
      .cls-1 {
        fill: #fff;
      }
    </style>
  </defs>
  <g id="_レイヤー_1-2" data-name="レイヤー 1">
    <path class="cls-1" d="M396.21,294.44v.64c11.16,0,16.59,11.48,16.27,24.56-.32,22.33-29.35,58.38-64.76,58.38s-42.43-21.37-42.43-43.38,12.76-56.14,39.56-92.51L511.05,16.27l-.64-.64c-13.72,19.46-24.15,28.09-34.13,26.8-2.57-.33-5.65-1.75-8.29-3.19l-110.69,148.02c-38.28,44.98-87.72,87.09-111.01,87.09-9.89,0-16.91-5.42-17.23-13.08-1.91-53.27,119.31-128.88,129.2-193.31.96-5.1,1.28-9.89,1.28-14.67,0-31.9-24.56-52.95-62.84-53.27C200.02,1.28,103.69,67.95,79.12,149.61c-4.98,19.64-4.7,36.5.64,49.01l-48.63-55.45,66.36-68.18c23.63-24.24,35.15-29.69,52.12-30.91v-1.82h-61.21v1.82c21.82,0,25.76,5.45,4.54,27.27L6.59,160.75V57.42c0-10.91,4.24-12.12,26.06-13.33v-1.82H0v220.58h32.65v-1.82c-21.82-1.21-26.06-2.42-26.06-13.33v-80.6l9.39-9.7c2.73-2.73,4.54-4.24,6.97-4.24s4.24,1.21,6.67,3.94l79.69,90.9c7.58,8.79,5.76,13.03-16.66,13.03v1.82h60.6v-1.82c-16.36-1.21-23.03-4.85-35.75-19.39l-22.15-25.26c6.45,3.65,14.45,5.64,23.98,5.64,36.37,0,98.89-41.79,96.98-96.02-.32-12.12-5.1-22.97-18.18-24.88l-.96.32c13.08,1.91,18.18,12.44,18.5,24.56,1.91,53.91-60.29,95.38-96.34,95.38s-42.43-30.62-38.28-51.68C92.84,104.95,200.34,1.28,298.6.64c28.39,1.28,49.76,16.59,50.4,39.24v3.83c0,70.5-132.7,129.2-129.83,204.48.64,16.27,11.17,26.8,27.12,26.8,20.1,0,63.8-32.86,101.76-75.28l-4.79,6.38c-23.92,31.9-46.26,71.14-46.26,108.46s12.44,64.44,51.36,64.44c35.73,0,64.44-36.69,64.76-59.33.32-13.4-5.42-25.2-16.91-25.2Z"/>
  </g>
</svg>