<?xml version="1.0" encoding="UTF-8"?>
<svg id="_レイヤー_2" data-name="レイヤー 2" xmlns="http://www.w3.org/2000/svg" viewBox="0 0 459.66 359.96">
  <defs>
    <style>
      .cls-1 {
        fill: #fff;
      }
    </style>
  </defs>
  <g id="_レイヤー_1-2" data-name="レイヤー 1">
    <path class="cls-1" d="M459.66,111.94v-34.43l-75.04,100.34c-36.36,42.72-83.33,82.72-105.44,82.72-9.39,0-16.06-5.15-16.36-12.42-1.82-50.6,113.32-122.41,122.72-183.62.91-4.85,1.21-9.39,1.21-13.94,0-30.3-23.33-50.3-59.69-50.6-37.34.49-74.64,11.26-107.31,29.09h-47.63l-.3,1.82c21.82,0,21.51,4.24-4.54,27.27l-101.51,88.78,29.39-102.72c3.03-10.91,7.88-12.12,30-13.33l.3-1.82h-62.42l-.3,1.82c21.51,1.21,25.15,2.42,22.12,13.33L30.3,234.52c-3.03,10.91-7.88,12.12-30,13.33l-.3,1.82h62.42l.3-1.82c-21.51-1.21-25.15-2.42-22.12-13.33l23.03-80.6,12.12-9.7c3.64-2.73,5.76-4.24,8.18-4.24s4.24.91,5.76,3.94l46.06,90.9c4.55,9.09,1.82,13.03-20.6,13.03l-.3,1.82h59.08l.3-1.82c-16.06-1.21-22.73-3.94-30.3-19.09l-13.86-27.29c6.86,6.06,16.39,9.42,28.51,9.42,34.54,0,93.93-39.69,92.11-91.2-.3-11.51-4.85-21.82-17.27-23.63l-.91.3c12.42,1.82,17.27,11.82,17.57,23.33,1.82,51.21-57.27,90.6-91.51,90.6s-40.3-29.09-36.36-49.09c7.32-40.18,53.44-96.13,110.55-130.27.08,0,.16-.01.23-.02l.02-.14C263.28,12.73,296.6.82,328.87.61c26.97,1.21,47.27,15.76,47.87,37.27v3.64c0,66.96-126.05,122.72-123.32,194.22.61,15.45,10.61,25.45,25.76,25.45,19.09,0,60.6-31.21,96.66-71.51l-4.54,6.06c-22.73,30.3-43.94,67.57-43.94,103.02s11.82,61.21,48.78,61.21c33.94,0,61.21-34.85,61.51-56.36.3-12.73-5.15-23.94-16.06-23.94v.61c10.6,0,15.76,10.91,15.45,23.33-.3,21.21-27.88,55.45-61.51,55.45s-40.3-20.3-40.3-41.21,12.12-53.33,37.57-87.87l86.86-118.03ZM120.4,142.11c-3.36,13.26-4.19,25.18-2.58,35.24l-24.2-47.67,78.17-67.87c12.12-10.5,21.71-17.38,30.02-21.94-39.1,25.87-69.36,62.15-81.42,102.23Z"/>
  </g>
</svg>