<svg width="951" height="697" viewBox="0 0 951 697" fill="none" xmlns="http://www.w3.org/2000/svg">
<path d="M903.753 235.874C897.448 259.03 880.838 284.558 856.042 310.958C831.24 337.364 798.302 364.583 759.488 391.034C681.864 443.935 580.933 493.636 475.115 527.547C369.297 561.458 278.72 573.13 217.816 564.623C187.362 560.37 164.365 551.077 150.575 537.038C136.789 523.002 132.233 504.257 138.538 481.101C144.843 457.945 161.453 432.417 186.249 406.017C211.051 379.61 243.989 352.392 282.803 325.94C360.427 273.04 461.359 223.339 567.176 189.428C672.994 155.517 763.571 143.845 824.475 152.352C854.929 156.605 877.926 165.898 891.716 179.937C905.502 193.973 910.058 212.717 903.753 235.874Z" stroke="#FF0000" stroke-width="2"/>
<path d="M427.104 202.868C469.975 258.253 503.029 324.754 521.83 387.445C540.637 450.16 545.128 508.851 531.124 548.934C517.12 589.016 487.165 603.206 449.862 593.43C412.572 583.657 368.061 549.949 325.19 494.563C282.319 439.178 249.265 372.677 230.464 309.986C211.656 247.271 207.165 188.58 221.169 148.497C235.174 108.415 265.128 94.2247 302.432 104.001C339.721 113.774 384.233 147.482 427.104 202.868Z" stroke="#FF0000" stroke-width="2"/>
<path d="M584.895 531.865C540.005 553.028 475.841 557.667 408.323 548.012C340.806 538.356 269.985 514.409 211.889 478.447C153.794 442.484 119.459 401.336 110.888 363.89C102.317 326.444 119.51 292.729 164.399 271.566C209.289 250.403 273.453 245.763 340.971 255.419C408.488 265.074 479.31 289.021 537.405 324.984C595.5 360.947 629.835 402.095 638.406 439.54C646.977 476.986 629.784 510.702 584.895 531.865Z" stroke="#FF0000"/>
</svg>
