<svg width="505" height="148" viewBox="0 0 505 148" fill="none" xmlns="http://www.w3.org/2000/svg">
<path d="M493.554 119.457C490.469 119.457 488.298 117.515 485.099 113.173L470.018 92.7218C469.446 91.8077 468.761 91.2365 467.847 91.2365C467.047 91.2365 466.476 91.8077 465.562 92.7218L463.048 95.1211V112.716C463.048 117.286 464.648 117.743 470.246 118.2V119H447.51V118.2C453.565 117.743 455.165 117.286 455.165 112.716V49.5341C455.165 39.4799 454.136 37.4233 448.424 36.5093V35.8238C453.565 35.1382 458.821 33.1959 463.162 30.5681H463.734C463.048 35.1382 463.048 40.3939 463.048 49.5341V93.0645L481.671 74.327C484.185 71.8135 485.099 69.8712 485.099 68.3859C485.099 66.2151 483.614 64.9583 479.843 64.9583V64.1585H502.351V64.9583C496.524 65.6438 490.926 67.7003 483.157 75.3553L473.674 84.7241L492.525 109.86C497.895 116.943 500.295 117.743 504.636 118.2V119C500.866 119.228 496.867 119.457 493.554 119.457Z" fill="#FF0000"/>
<path d="M420.615 118.2C427.128 117.743 428.727 117.286 428.727 112.716V49.5341C428.727 39.4799 427.699 37.4233 421.529 36.5093V35.8238C427.128 35.1382 432.383 33.1959 436.725 30.5681H437.296C436.611 35.1382 436.611 40.3939 436.611 49.5341V112.716C436.611 117.286 438.21 117.743 444.723 118.2V119H420.615V118.2Z" fill="#FF0000"/>
<path d="M408.23 119.914C402.175 119.914 401.146 115.001 401.032 110.317C395.091 116.715 389.835 119.914 384.008 119.914C377.153 119.914 372.24 115.344 372.24 108.717C372.24 103.462 375.211 99.6914 387.55 96.0353L401.032 92.0364V80.0398C401.032 72.9561 397.947 68.386 391.549 68.386C386.865 68.386 379.438 72.0421 379.438 74.4414C379.438 75.584 380.809 77.9833 380.809 79.9256C380.809 82.3249 379.21 83.5817 377.039 83.5817C375.211 83.5817 373.497 82.5534 373.497 80.4968C373.497 77.9833 375.782 74.4414 379.438 71.2424C384.465 66.6722 390.406 63.4731 395.891 63.4731C403.66 63.4731 408.915 68.2718 408.915 78.2118V109.86C408.915 113.173 410.172 115.458 412.914 115.458C415.428 115.458 417.37 113.402 419.084 110.888L419.77 111.345C417.827 115.23 414.171 119.914 408.23 119.914ZM380.124 106.547C380.124 111.802 383.551 115.001 388.578 115.001C392.692 115.001 396.69 112.602 401.032 108.489V93.6359L389.949 97.1778C383.094 99.2343 380.124 101.862 380.124 106.547Z" fill="#FF0000"/>
<path d="M316.899 117.874C328.161 117.23 330.736 115.943 332.505 109.668L362.752 4.44845L352.616 4.44845C335.884 4.44845 328.805 8.30973 314.808 28.4206H313.682L327.035 0.908936C330.092 1.55248 336.045 1.87425 342.48 1.87425L397.182 1.87425C403.617 1.87425 409.409 1.55248 412.788 0.908936L410.536 28.4206H409.248C406.835 8.30973 402.169 4.44845 385.437 4.44845L375.14 4.44845L345.055 109.668C343.285 115.943 345.215 117.23 355.995 117.874L355.673 119H316.578L316.899 117.874Z" fill="#FF0000"/>
<path d="M253.186 120.143C246.788 120.143 241.532 118.772 238.104 117.058L236.733 104.261H237.533C240.618 113.287 246.102 118.429 253.3 118.429C261.069 118.429 266.211 113.973 266.211 107.803C266.211 103.119 263.24 99.0058 255.014 95.5782L251.015 93.8644C241.418 89.7513 238.561 84.3814 238.561 78.4403C238.561 69.3 245.531 63.0161 254.785 63.0161C260.27 63.0161 264.268 64.0444 268.267 65.6439L269.296 77.0692H268.496C265.525 69.3 260.155 64.7299 254.671 64.7299C249.187 64.7299 244.046 68.0432 244.046 74.0987C244.046 78.783 245.988 82.3249 255.014 86.2095L259.013 87.9233C268.496 92.0364 271.809 97.4063 271.809 103.576C271.809 113.402 263.926 120.143 253.186 120.143Z" fill="#FF0000"/>
<path d="M229.006 60.5023V60.1596C239.289 58.6743 246.601 50.1053 248.315 44.6212C246.03 47.9345 243.059 49.8768 240.431 49.8768C238.146 49.8768 237.004 48.2773 237.004 46.1065C237.232 40.7366 243.63 34.9097 247.972 34.9097C250.371 34.9097 251.742 36.5092 251.628 38.7943C251.399 44.7354 242.259 58.6743 229.006 60.5023ZM243.63 42.1076C243.402 42.5646 243.173 43.3644 243.744 43.3644C244.316 43.3644 245.344 42.3361 245.573 41.5363C245.687 41.3078 245.573 40.8508 245.23 40.8508C244.887 40.8508 244.202 41.3078 243.63 42.1076Z" fill="#FF0000"/>
<path d="M212.863 120.143C206.237 120.143 201.095 116.601 201.095 107.918V68.7288H194.583V67.3577C201.781 64.7299 204.98 58.903 207.608 51.8193H208.979V64.1587H227.716L226.917 68.7288H208.979V106.204C208.979 113.173 212.749 115.573 218.005 115.573C221.775 115.573 225.203 114.316 228.288 112.373L228.859 113.059C224.289 117.515 218.348 120.143 212.863 120.143Z" fill="#FF0000"/>
<path d="M166.531 120.143C152.592 120.143 141.396 109.631 141.396 92.0364C141.396 75.2412 152.478 63.0161 167.559 63.0161C180.47 63.0161 188.468 70.6711 188.696 83.6959H149.393C149.279 84.9527 149.165 86.3237 149.165 87.6948C149.165 104.261 158.648 114.544 170.416 114.544C178.413 114.544 185.497 109.631 190.296 100.834L191.096 101.291C186.183 113.859 176.357 120.143 166.531 120.143ZM149.622 81.8679H177.271C179.556 81.8679 180.127 81.1823 180.127 78.783C180.127 72.1564 175.9 64.7299 166.76 64.7299C158.305 64.7299 151.336 70.7853 149.622 81.8679Z" fill="#FF0000"/>
<path d="M96.8514 80.7447H97.0301C80.4051 99.1573 60.5624 115.246 34.8205 120.966C63.6014 129.726 96.8514 143.491 118.482 134.195C124.381 131.871 128.492 127.938 132.068 121.86L132.783 123.29C123.845 137.949 109.722 149.568 83.6229 147.602C65.7466 146.172 42.6861 130.083 25.7036 122.396C20.5195 122.933 14.9778 123.112 9.25739 122.754C4.25202 122.575 0.676758 120.966 0.676758 118.642C0.676758 116.14 3.8945 114.71 8.54234 114.71C11.2238 114.71 16.5867 115.961 23.2009 117.57L28.7426 119.179C51.4455 114.352 67.1767 101.481 80.5839 86.1076C73.9697 87.7164 68.0705 88.6102 62.7076 88.6102C42.3286 88.6102 24.2735 78.7783 24.2735 59.1143C24.2735 34.6238 54.4845 16.5687 85.5893 16.5687C92.2035 16.5687 98.9965 17.2837 105.611 19.2501V20.6802C97.7452 18.3563 88.092 17.9988 86.1256 17.9988C56.0934 17.9988 31.9603 36.2326 31.9603 58.9356C31.9603 80.3871 48.7641 86.8226 62.7076 86.8226C68.428 86.8226 75.0423 85.9288 82.5503 83.7836L85.5893 80.2084C112.225 47.4947 134.749 5.48535 164.245 5.48535C170.323 5.48535 174.256 8.88185 174.256 14.6023C174.256 33.3724 133.855 65.7285 96.8514 80.7447ZM166.39 7.63051C146.19 7.63051 127.777 45.3495 99.7116 77.7057C135.464 62.5108 172.647 32.1211 172.647 14.4235C172.647 9.95443 170.323 7.63051 166.39 7.63051ZM9.25739 121.145C13.0114 121.145 16.7654 120.966 20.6982 120.43C10.5087 116.676 2.46439 115.782 2.46439 118.642C2.46439 119.894 5.50336 121.145 9.25739 121.145Z" fill="#FF0000"/>
</svg>
