<svg width="419" height="149" viewBox="0 0 419 149" fill="none" xmlns="http://www.w3.org/2000/svg">
<path d="M411.887 74.487C405.298 84.6328 393.398 94.3314 377.435 103.189C361.468 112.049 341.471 120.047 318.772 126.773C273.376 140.224 217.286 148.555 161.28 148.555C105.273 148.555 60.0023 140.224 32.0775 126.773C18.1145 120.047 8.50555 112.049 4.046 103.189C-0.412538 94.3314 0.283943 84.6328 6.87268 74.487C13.4614 64.3412 25.3616 54.6427 41.3249 45.7848C57.2919 36.9249 77.2888 28.9268 99.9875 22.2009C145.383 8.74963 201.473 0.419335 257.48 0.419335C313.486 0.419335 358.757 8.74963 386.682 22.2009C400.645 28.9268 410.254 36.9249 414.713 45.7848C419.172 54.6427 418.475 64.3412 411.887 74.487Z" stroke="#FF0000"/>
</svg>
